<svg id="SvgjsSvg1001" width="288" height="288" xmlns="http://www.w3.org/2000/svg" version="1.1" xmlns:xlink="http://www.w3.org/1999/xlink" xmlns:svgjs="http://svgjs.com/svgjs"><defs id="SvgjsDefs1002"></defs><g id="SvgjsG1008" transform="matrix(1,0,0,1,0,0)"><svg xmlns="http://www.w3.org/2000/svg" viewBox="0 0 16 15" width="288" height="288"><path fill="#45a1ed" d="M15.01 3.316l-.478-.372a.365.365 0 0 0-.51.063L8.666 9.879a.32.32 0 0 1-.484.033l-.358-.325a.319.319 0 0 0-.484.032l-.378.483a.418.418 0 0 0 .036.541l1.32 1.266c.143.14.361.125.484-.033l6.272-8.048a.366.366 0 0 0-.064-.512zm-4.1 0l-.478-.372a.365.365 0 0 0-.51.063L4.566 9.879a.32.32 0 0 1-.484.033L1.891 7.769a.366.366 0 0 0-.515.006l-.423.433a.364.364 0 0 0 .006.514l3.258 3.185c.143.14.361.125.484-.033l6.272-8.048a.365.365 0 0 0-.063-.51z" class="colorcurrentColor svgShape"></path></svg></g></svg>